<svg width="314" height="79" viewBox="0 0 314 79" fill="none" xmlns="http://www.w3.org/2000/svg">
<path d="M205.343 25.0732C206.499 25.6623 208.383 26.6429 210.717 27.8781C213.022 29.1133 215.775 30.5917 218.706 32.169C221.57 33.6892 224.581 35.2247 227.5 36.5169C230.42 37.8167 233.251 38.8733 235.71 39.5688C238.555 40.3897 241.36 40.8952 244.029 41.0092C246.702 41.1271 249.205 40.785 251.517 40.0059C252.669 39.6106 253.799 39.1165 254.852 38.4856C255.92 37.8547 256.98 37.0908 258.044 36.209C260.172 34.4379 262.285 32.1652 264.53 29.6796C265.657 28.4329 266.824 27.1369 268.057 25.8219L268.999 24.8338L269.979 23.8418C270.641 23.1843 271.348 22.542 272.033 21.8959C274.823 19.357 277.823 17.0805 280.975 15.0927C287.281 11.1249 294.201 8.28201 301.362 6.78456C301.917 6.65534 302.532 6.55652 303.169 6.4349C303.81 6.32469 304.469 6.18406 305.153 6.12325C305.834 6.04724 306.523 5.99023 307.196 5.95603C307.87 5.92182 308.54 5.96362 309.166 6.01683C310.421 6.11565 311.544 6.44631 312.339 6.98979C313.138 7.53329 313.616 8.30481 313.639 9.3804C313.664 10.5016 313.399 11.5277 312.902 12.4475C312.652 12.9074 312.346 13.3368 311.989 13.7359C311.809 13.9373 311.618 14.1274 311.411 14.3136C311.205 14.5036 310.992 14.6975 310.763 14.8761C310.307 15.2372 309.803 15.5678 309.25 15.8681C308.702 16.1721 308.109 16.4876 307.472 16.7422C306.832 16.9931 306.158 17.2591 305.437 17.4947C305.076 17.6088 304.704 17.719 304.321 17.8178C303.942 17.9356 303.552 18.0458 303.151 18.1484C301.196 18.6159 299.278 19.2506 297.367 19.9157C296.892 20.0868 296.425 20.2844 295.95 20.4668C295.482 20.6607 295 20.8203 294.54 21.0407C293.616 21.4626 292.67 21.8427 291.772 22.3215C288.124 24.1306 284.619 26.3122 281.453 28.9422L280.271 29.9342C279.87 30.2573 279.513 30.6297 279.13 30.9756C278.755 31.329 278.372 31.6711 278.004 32.0359C277.636 32.4122 277.268 32.7695 276.899 33.1571C275.431 34.6888 273.973 36.3459 272.46 38.0523C270.947 39.7588 269.382 41.5185 267.663 43.2478C265.948 44.9771 264.052 46.6684 261.924 48.181C258.806 50.431 255.147 52.0235 251.392 52.8672C247.626 53.6843 243.808 53.7641 240.179 53.3537C236.545 52.9356 233.074 52.0805 229.768 50.9859C226.455 49.8989 223.304 48.5725 220.248 47.1549C217.196 45.7334 214.248 44.2094 211.362 42.6739L207.106 40.4125L202.854 38.1968C197.174 35.2627 191.446 32.4388 185.648 29.7632C180.446 27.3536 175.219 25.0048 169.962 22.7206L166.016 21.0179L162.08 19.3571C159.514 18.2929 156.941 17.3161 154.368 16.48C149.236 14.8115 144.035 13.6675 139.161 13.6979C137.95 13.7131 136.761 13.7967 135.612 13.9602C134.463 14.1274 133.363 14.3934 132.306 14.7317C131.25 15.0699 130.248 15.4994 129.31 16.0277C128.371 16.556 127.476 17.1527 126.652 17.8634C125.113 19.1822 123.802 20.7937 122.702 22.694C121.601 24.5905 120.706 26.7569 119.967 29.0943C118.476 33.7842 117.599 39.0633 116.532 44.6426C116.274 46.0033 115.961 47.5501 115.604 49.0286C115.243 50.5184 114.839 52.0083 114.375 53.4943C113.447 56.4626 112.291 59.4271 110.767 62.3384C109.243 65.2383 107.347 68.1077 104.848 70.6922C103.6 71.9806 102.193 73.1854 100.636 74.2381C99.0826 75.2909 97.3745 76.1841 95.5781 76.8454C94.0282 77.4117 92.4306 77.8221 90.8071 78.0464C89.1947 78.2706 87.6155 78.3162 86.1098 78.244C83.0912 78.0958 80.3781 77.5067 77.9043 76.853C76.6674 76.5223 75.4857 76.1803 74.3518 75.823L70.9209 74.755C69.776 74.4016 68.6458 74.0025 67.5083 73.6262C66.3745 73.2424 65.237 72.8699 64.1105 72.4594L60.7311 71.2432C59.6083 70.8328 58.4929 70.3957 57.3738 69.97C55.1319 69.1377 52.9194 68.2103 50.6959 67.3286L47.3865 65.9376L45.7336 65.2421L44.0917 64.5199L40.8043 63.0833L37.539 61.5973C36.5083 61.1412 35.4186 60.6889 34.2848 60.2404C33.151 59.792 31.9693 59.3701 30.7802 58.9178C28.4132 57.9981 25.9872 57.0669 23.7895 55.9191C21.9562 55.0032 19.5486 53.7147 17.1558 52.4073C14.7851 51.0543 12.4254 49.6861 10.7577 48.5041C9.30732 47.5007 7.82377 46.4327 6.27763 45.684C4.49221 44.8441 3.08596 44.0574 2.07729 43.282C1.06126 42.5143 0.420717 41.796 0.148302 41.0967C-0.392846 39.7018 0.553243 38.402 2.88349 36.9768C3.90689 36.3497 4.0615 34.799 6.00521 35.1335C6.0862 35.1487 6.2445 35.1753 6.3218 35.1791C7.10224 35.2247 7.84585 35.3349 8.56738 35.4831C9.2926 35.6276 9.98836 35.8176 10.6657 36.0494C12.0204 36.5131 13.2794 37.1478 14.5274 37.8205C15.7716 38.5008 16.9717 39.28 18.1902 40.0287C19.4124 40.7736 20.642 41.5223 21.912 42.1912C34.4357 48.6447 47.4049 54.167 60.6906 58.6708C62.3545 59.2295 64.0111 59.7958 65.6861 60.3088L68.193 61.0994C69.0287 61.3616 69.8717 61.5973 70.711 61.8519L73.2327 62.5968L75.7654 63.2961L78.2981 63.9916C79.1375 64.2121 79.9547 64.4211 80.7572 64.6111C83.9526 65.3751 86.8755 65.7437 89.2684 65.3219C91.6722 64.9114 93.8331 63.756 95.7732 61.8671C98.155 59.5601 100.117 56.2346 101.623 52.5784C102.381 50.7465 103.029 48.8195 103.585 46.8432C103.865 45.855 104.115 44.8517 104.347 43.8445C104.461 43.3542 104.575 42.8069 104.693 42.2672L105.035 40.6406C105.956 36.2623 106.828 31.6673 108.227 26.9431C108.912 24.5867 109.758 22.1885 110.837 19.8093C111.912 17.4339 113.211 15.0509 114.897 12.839C115.324 12.2157 115.836 11.6418 116.322 11.0489L117.066 10.1671L117.876 9.3348C118.42 8.78371 118.958 8.2174 119.554 7.72332C119.849 7.47248 120.136 7.20645 120.445 6.9708L121.376 6.26009C122.639 5.34793 123.983 4.5194 125.4 3.8847C126.81 3.21958 128.283 2.73689 129.773 2.41764L129.674 2.44045C131.194 1.96157 132.726 1.63472 134.254 1.36488C135.778 1.11784 137.294 0.969614 138.796 0.901201C141.793 0.787179 144.723 0.988603 147.532 1.47508C150.193 1.92736 152.785 2.54307 155.314 3.27279C157.847 3.9987 160.317 4.82725 162.736 5.7318C165.151 6.62114 167.554 7.6207 169.796 8.56706C172.075 9.52102 174.343 10.494 176.603 11.4783C185.637 15.4158 194.468 19.5965 202.747 23.9634C203.403 24.3093 204.378 24.5753 205.343 25.0732Z" fill="#0f1419"/>
</svg>
