<svg width="49" height="48" viewBox="0 0 49 48" fill="none" xmlns="http://www.w3.org/2000/svg">
  <path
    d="M1.15694 29.9256C1.30903 38.5844 10.5772 45.2038 16.4996 46.346C18.6733 46.7824 19.175 46.9129 19.6854 46.9786C20.1278 47.0356 20.5768 47.0439 22.1267 47.1606C24.9215 47.6879 27.8823 47.6985 30.7592 47.4267C38.9522 47.4267 51.3178 36.3857 47.924 19.4082C47.6341 17.4042 47.0829 15.4793 46.2565 13.7747C44.1327 9.39408 40.6672 5.50972 36.3957 3.65969C36.3127 3.61603 36.2276 3.57115 36.1405 3.52519C33.9784 2.3842 30.5635 0.582051 25.7046 0.582031C20.2138 0.582009 13.3053 1.73604 8.67976 5.47464C1.73999 11.0837 -0.843018 20.0534 1.15694 29.9256Z"
    fill="#FFD06D" />
  <path
    d="M23.75 10.7773C15.8791 10.7773 9.5 17.0258 9.5 24.7365C9.5 32.4468 15.8791 38.6957 23.75 38.6957C31.6209 38.6957 38 32.4468 38 24.7365C38 17.0263 31.6209 10.7773 23.75 10.7773Z"
    fill="#1C2026" />
  <path
    d="M23.75 10.7773C15.8791 10.7773 9.5 17.0258 9.5 24.7365C9.5 32.4468 15.8791 38.6957 23.75 38.6957C31.6209 38.6957 38 32.4468 38 24.7365C38 17.0263 31.6209 10.7773 23.75 10.7773Z"
    stroke="#1C2026" />
  <path
    d="M14.8909 30.4989H22.7497V28.5934H18.1205V28.518L19.73 26.9408C21.9961 24.8739 22.6044 23.8404 22.6044 22.5862C22.6044 20.6753 21.0434 19.3242 18.6803 19.3242C16.3658 19.3242 14.7778 20.7076 14.7832 22.8715H16.9955C16.9902 21.8164 17.6576 21.1705 18.6642 21.1705C19.6331 21.1705 20.3544 21.7734 20.3544 22.7423C20.3544 23.6197 19.8161 24.2225 18.8149 25.1861L14.8909 28.8194V30.4989Z"
    fill="white" />
  <path
    d="M24.0349 28.5611H29.3261V30.4989H31.5546V28.5611H32.9218V26.6932H31.5546V19.4749H28.6371L24.0349 26.7255V28.5611ZM29.3692 26.6932H26.3818V26.6071L29.2831 22.0156H29.3692V26.6932Z"
    fill="white" />
</svg>