<svg width="49" height="48" viewBox="0 0 49 48" fill="none" xmlns="http://www.w3.org/2000/svg">
  <g clip-path="url(#clip0_1612_44130)">
    <path
      d="M1.15694 29.9549C1.30903 38.7941 10.5772 45.5514 16.4996 46.7174C18.6733 47.1628 19.175 47.2961 19.6854 47.3632C20.1278 47.4214 20.5768 47.4299 22.1267 47.5489C24.9215 48.0873 27.8823 48.098 30.7592 47.8206C38.9522 47.8206 51.3178 36.5496 47.924 19.2184C47.6341 17.1726 47.0829 15.2076 46.2565 13.4675C44.1327 8.99563 40.6672 5.03035 36.3957 3.14177C36.3127 3.09721 36.2276 3.05139 36.1405 3.00447C33.9784 1.83972 30.5635 2.05124e-05 25.7046 3.42113e-10C20.2138 -2.3179e-05 13.3053 1.17805 8.67976 4.99454C1.73999 10.7205 -0.843018 19.877 1.15694 29.9549Z"
      fill="#FFD06D" />
    <path
      d="M35.4807 24.6395C35.3784 26.4018 34.8534 28.1136 33.95 29.6303C33.0467 31.1469 31.7916 32.4239 30.2907 33.3533C28.7898 34.2827 27.0873 34.8373 25.3269 34.9701C23.5666 35.1029 21.8001 34.8101 20.1767 34.1165C20.0048 34.0383 19.8163 34.0033 19.6278 34.0145C19.4392 34.0257 19.2562 34.0828 19.0947 34.1807C18.0647 34.8447 16.4625 34.7575 15.783 34.6848C15.7605 34.6815 15.7396 34.6715 15.7229 34.6561C15.7062 34.6408 15.6945 34.6208 15.6893 34.5987C15.6841 34.5766 15.6857 34.5535 15.6938 34.5323C15.7019 34.5111 15.7162 34.4929 15.7349 34.4799C16.3286 34.097 17.6316 33.0941 16.8792 31.9334C15.5483 30.6551 14.5604 29.0625 14.0065 27.3024C13.4526 25.5422 13.3504 23.671 13.7094 21.861C14.0684 20.051 14.877 18.3603 16.0608 16.9448C17.2445 15.5292 18.7655 14.4342 20.4835 13.7606C22.2015 13.0869 24.0613 12.8563 25.8919 13.0899C27.7224 13.3235 29.4647 14.0139 30.9584 15.0974C32.4522 16.181 33.6493 17.6229 34.4395 19.2904C35.2298 20.9579 35.5878 22.7974 35.4807 24.6395Z"
      fill="white" />
    <path
      d="M24.5272 13.881C27.1754 13.8878 29.7161 14.9299 31.6064 16.7846C33.4968 18.6393 34.5871 21.1597 34.6443 23.8073C34.7016 26.455 33.7214 29.0202 31.913 30.9549C30.1047 32.8896 27.6115 34.0406 24.966 34.162H24.5272C23.2736 34.1639 22.0306 33.9326 20.8616 33.4798C20.7265 33.4282 20.5834 33.401 20.4388 33.3995C20.2348 33.3982 20.0351 33.4589 19.8663 33.5734C19.1626 34.063 18.1378 34.162 17.4127 34.162C17.1826 34.162 16.982 34.1621 16.8294 34.1406C16.8078 34.1398 16.787 34.1321 16.77 34.1186C16.7531 34.1051 16.7409 34.0866 16.7352 34.0657C16.7295 34.0448 16.7307 34.0226 16.7385 34.0024C16.7463 33.9822 16.7603 33.965 16.7786 33.9533C17.3137 33.5841 18.483 32.6155 17.7525 31.5694C16.2667 30.2369 15.2069 28.4956 14.706 26.5636C14.2051 24.6317 14.2853 22.5948 14.9365 20.7082C15.5878 18.8216 16.7811 17.1691 18.3672 15.9575C19.9532 14.7459 21.8614 14.0292 23.8529 13.897C24.0777 13.881 24.3024 13.8729 24.5272 13.8729V13.881ZM24.5272 12C24.2596 12 23.992 12 23.7245 12.0267C21.4432 12.1774 19.2522 12.9757 17.4087 14.328C15.5653 15.6803 14.1459 17.5304 13.3172 19.6612C12.4885 21.792 12.2848 24.115 12.7302 26.3575C13.1755 28.5999 14.2514 30.6688 15.8314 32.3212C15.794 32.3533 15.7512 32.3828 15.7057 32.4149C15.3697 32.6472 15.1141 32.9779 14.9739 33.3615C14.8338 33.7451 14.8161 34.1628 14.9232 34.5569C15.0303 34.951 15.257 35.3023 15.5721 35.5622C15.8871 35.8221 16.275 35.9779 16.6823 36.0082C16.9204 36.0269 17.1639 36.035 17.4047 36.035C18.4864 36.0714 19.5602 35.8388 20.5298 35.358C21.8137 35.8117 23.1655 36.0433 24.5272 36.043C24.6984 36.043 24.8723 36.043 25.0462 36.043C28.1774 35.8956 31.1272 34.5308 33.2663 32.2395C35.4055 29.9482 36.5649 26.9118 36.4972 23.7778C36.4295 20.6439 35.14 17.6604 32.9039 15.4637C30.6677 13.2669 27.6618 12.0307 24.5272 12.0187V12Z"
      fill="#1C2026" />
    <path
      d="M18.8226 26.1374C19.7861 26.1374 20.5671 25.3564 20.5671 24.3929C20.5671 23.4295 19.7861 22.6484 18.8226 22.6484C17.8592 22.6484 17.0781 23.4295 17.0781 24.3929C17.0781 25.3564 17.8592 26.1374 18.8226 26.1374Z"
      fill="#1C2026" />
    <path
      d="M24.7738 26.1374C25.7373 26.1374 26.5183 25.3564 26.5183 24.3929C26.5183 23.4295 25.7373 22.6484 24.7738 22.6484C23.8103 22.6484 23.0293 23.4295 23.0293 24.3929C23.0293 25.3564 23.8103 26.1374 24.7738 26.1374Z"
      fill="#1C2026" />
    <path
      d="M30.5961 26.1374C31.5595 26.1374 32.3406 25.3564 32.3406 24.3929C32.3406 23.4295 31.5595 22.6484 30.5961 22.6484C29.6326 22.6484 28.8516 23.4295 28.8516 24.3929C28.8516 25.3564 29.6326 26.1374 30.5961 26.1374Z"
      fill="#1C2026" />
  </g>
  <defs>
    <clipPath id="clip0_1612_44130">
      <rect width="48" height="48" fill="white" transform="translate(0.5)" />
    </clipPath>
  </defs>
</svg>