<svg width="48" height="48" viewBox="0 0 48 48" fill="none" xmlns="http://www.w3.org/2000/svg">
<path d="M0.656939 29.9549C0.809034 38.7941 10.0772 45.5514 15.9996 46.7174C18.1733 47.1628 18.675 47.2961 19.1854 47.3632C19.6278 47.4214 20.0768 47.4299 21.6267 47.5489C24.4215 48.0873 27.3823 48.098 30.2592 47.8206C38.4522 47.8206 50.8178 36.5496 47.424 19.2184C47.1341 17.1726 46.5829 15.2076 45.7565 13.4675C43.6327 8.99563 40.1672 5.03035 35.8957 3.14177C35.8127 3.09721 35.7276 3.05139 35.6405 3.00447C33.4784 1.83972 30.0635 2.05124e-05 25.2046 3.42113e-10C19.7138 -2.3179e-05 12.8053 1.17805 8.17976 4.99454C1.23999 10.7205 -1.34302 19.877 0.656939 29.9549Z" fill="#FFD06D"/>
<rect x="26.3965" y="19.0039" width="6.25461" height="5.00369" fill="white"/>
<path fill-rule="evenodd" clip-rule="evenodd" d="M27.4907 14C27.9143 14 28.2577 14.3434 28.2577 14.767V16.7007C28.2577 17.1243 28.601 17.4677 29.0246 17.4677H31.0187C32.553 17.4677 33.1656 19.3746 33.3957 20.0688L34.0971 22.4493C34.1357 22.5804 34.2556 22.6707 34.3922 22.6716C35.6965 22.6716 36.6931 23.7982 36.6931 25.2728V26.6235C36.6931 26.8354 36.8651 27.0071 37.077 27.0067C37.2889 27.0062 37.4609 27.1779 37.4609 27.3898V29.7065C37.4609 30.1301 37.1176 30.4735 36.694 30.4735H35.1606C34.737 30.4735 34.4017 30.8204 34.3185 31.2358C34.0091 32.7794 32.7817 33.9412 31.3264 33.9412C29.871 33.9412 28.6437 32.7794 28.3343 31.2358C28.251 30.8204 27.9157 30.4735 27.4921 30.4735H21.3571C20.9335 30.4735 20.5982 30.8204 20.515 31.2358C20.2056 32.7794 18.9782 33.9412 17.5229 33.9412C16.0675 33.9412 14.8402 32.7794 14.5308 31.2358C14.4476 30.8204 14.1122 30.4735 13.6886 30.4735H12.1551C11.7316 30.4735 11.3882 30.1302 11.3881 29.7067L11.3842 14.7672C11.3841 14.3435 11.7275 14 12.1512 14H27.4907ZM32.3215 20.5029C32.0914 19.7226 31.7074 18.7683 31.0172 18.7683L29.0241 18.7694C28.6007 18.7697 28.2576 19.113 28.2576 19.5364V21.9047C28.2576 22.3282 28.601 22.6716 29.0246 22.6716H31.9212C32.43 22.6716 32.7978 22.1853 32.6592 21.6957L32.3215 20.5029Z" fill="#1C2026"/>
<circle cx="17.6396" cy="31.5126" r="1.25092" fill="white"/>
<circle cx="31.3994" cy="31.5126" r="1.25092" fill="white"/>
</svg>
